Coordinates
version=1
nRows=32
nColumns=22
inDegrees=yes

Units are S.I. units (second, meters, Newtons, ...)
If the header above contains a line with 'inDegrees', this indicates whether rotational values are in degrees (yes) or radians (no).

endheader
time	pelvis_tilt	pelvis_list	pelvis_rotation	pelvis_tx	pelvis_ty	pelvis_tz	hip_flexion_r	hip_adduction_r	hip_rotation_r	knee_angle_r	ankle_angle_r	subtalar_angle_r	hip_flexion_l	hip_adduction_l	hip_rotation_l	knee_angle_l	ankle_angle_l	subtalar_angle_l	lumbar_extension	lumbar_bending	lumbar_rotation
      1.53000000	      1.09348499	     -1.69473133	      0.77903015	     -1.11616699	      1.07673759	     -0.58877039	     -2.68994498	      0.71901099	     -2.23610284	    -11.12587125	     13.16379296	     -2.03399649	     -0.81282454	      0.00435704	     -1.62012432	    -15.18543424	     15.66371513	     -2.44920309	     -2.02124807	     -1.35783692	     -5.02790982
      1.54000000	      1.12742037	     -1.66344880	      0.84661902	     -1.11511237	      1.07652262	     -0.58979886	     -2.67454611	      0.63178629	     -2.28839476	    -11.35777929	     13.34538527	     -1.97752238	     -0.86663984	      0.09998939	     -1.48851979	    -15.26530639	     15.76365551	     -2.51920483	     -1.99890470	     -1.35755914	     -5.00578795
      1.55000000	      1.15243771	     -1.58821643	      0.94396543	     -1.11402067	      1.07629623	     -0.59093817	     -2.63032474	      0.49438857	     -2.36020504	    -11.63627031	     13.53367936	     -1.86355913	     -0.92784523	      0.24552065	     -1.33644759	    -15.31364449	     15.79957650	     -2.63348990	     -1.96950771	     -1.40482977	     -5.03418662
      1.56000000	      1.18391321	     -1.51731457	      1.02833831	     -1.11285954	      1.07606540	     -0.59211211	     -2.57162598	      0.36070837	     -2.40317001	    -11.96041183	     13.73377271	     -1.78270825	     -1.03037643	      0.38861427	     -1.19550147	    -15.30918351	     15.86177570	     -2.72631419	     -1.94503651	     -1.44311420	     -5.03333395
      1.57000000	      1.21621886	     -1.42238012	      1.11437820	     -1.11163046	      1.07581831	     -0.59332679	     -2.49138832	      0.20023950	     -2.44291871	    -12.33633149	     13.95199399	     -1.72232215	     -1.15501865	      0.55757867	     -1.05904784	    -15.27438219	     15.91809103	     -2.80298472	     -1.91853912	     -1.50962189	     -5.05105377
      1.58000000	      1.24323386	     -1.30537366	      1.20828795	     -1.11037945	      1.07554609	     -0.59461349	     -2.37500142	      0.01345170	     -2.48364797	    -12.77544668	     14.18758774	     -1.66685439	     -1.28876871	      0.75298561	     -0.91460792	    -15.21470601	     15.96445747	     -2.87760248	     -1.89414854	     -1.59743241	     -5.07816583
      1.59000000	      1.24923005	     -1.16629876	      1.31712421	     -1.10913953	      1.07522744	     -0.59597933	     -2.19600756	     -0.20069857	     -2.53637591	    -13.29406133	     14.42796531	     -1.57916044	     -1.40426910	      0.97707939	     -0.73750350	    -15.14656378	     15.96672048	     -2.98707180	     -1.85716050	     -1.70906824	     -5.11607292
      1.60000000	      1.26332073	     -1.00737812	      1.42136570	     -1.10788342	      1.07488570	     -0.59739516	     -1.99109519	     -0.43859785	     -2.56931774	    -13.88164255	     14.70545722	     -1.53292608	     -1.53956992	      1.22165233	     -0.59460519	    -15.06128712	     16.01774613	     -3.06062251	     -1.84022378	     -1.83742150	     -5.17066773
      1.61000000	      1.24176014	     -0.83032901	      1.53859820	     -1.10667493	      1.07447712	     -0.59886708	     -1.69240552	     -0.69996268	     -2.61664328	    -14.57514471	     14.97717821	     -1.45091672	     -1.63260777	      1.49120015	     -0.40387527	    -14.98047982	     16.01392802	     -3.17226791	     -1.79815079	     -1.99053480	     -5.23282231
      1.62000000	      1.20946577	     -0.64414416	      1.65339914	     -1.10548787	      1.07402489	     -0.60038097	     -1.33290565	     -0.97431400	     -2.65010767	    -15.36066646	     15.25867768	     -1.37136066	     -1.71636635	      1.77219309	     -0.22564056	    -14.89583746	     16.04018363	     -3.29202240	     -1.75893273	     -2.15082573	     -5.30784062
      1.63000000	      1.22873762	     -0.43604818	      1.76171527	     -1.10433714	      1.07361668	     -0.60192311	     -0.98683710	     -1.27013297	     -2.64045514	    -16.22336558	     15.54971355	     -1.34545741	     -1.85524472	      2.07428557	     -0.07524694	    -14.81095101	     16.10148576	     -3.35366492	     -1.80385062	     -2.33133658	     -5.39351130
      1.64000000	      1.17910330	     -0.21426384	      1.88584445	     -1.10333324	      1.07311115	     -0.60351843	     -0.49400889	     -1.58441631	     -2.61555749	    -17.21408200	     15.80323073	     -1.27138295	     -1.89021792	      2.39840548	      0.13676097	    -14.77120091	     16.06153050	     -3.46069799	     -1.80231605	     -2.53211469	     -5.47943102
      1.65000000	      1.09808508	     -0.00886444	      1.99517221	     -1.10234337	      1.07254603	     -0.60512840	      0.09138653	     -1.88484505	     -2.56776801	    -18.30958167	     16.02159311	     -1.17890783	     -1.90210190	      2.70557185	      0.30802264	    -14.71003038	     16.08807862	     -3.59470646	     -1.77665850	     -2.70780184	     -5.57792770
      1.66000000	      1.04359101	      0.20556240	      2.10328458	     -1.10144132	      1.07202273	     -0.60674520	      0.70321159	     -2.18966044	     -2.45834597	    -19.50135508	     16.20314834	     -1.09736035	     -1.92693576	      3.02065720	      0.47373932	    -14.67306472	     16.11061798	     -3.69479960	     -1.81242023	     -2.89383935	     -5.67660500
      1.67000000	      1.03712581	      0.42635654	      2.20610403	     -1.10058565	      1.07158749	     -0.60837016	      1.30956609	     -2.49431822	     -2.28589683	    -20.77600968	     16.34857738	     -1.03526688	     -2.00485487	      3.34008616	      0.63031231	    -14.62988087	     16.10931522	     -3.75000985	     -1.92945777	     -3.08278557	     -5.78699328
      1.68000000	      0.92912968	      0.60252933	      2.30419694	     -1.09979112	      1.07104408	     -0.60999317	      2.10701951	     -2.75515516	     -2.08951749	    -22.19004629	     16.37324631	     -0.87496779	     -1.96483643	      3.61524647	      0.76996336	    -14.59587863	     16.13316705	     -3.85189341	     -1.94108265	     -3.22324270	     -5.89128274
      1.69000000	      0.86542072	      0.77086839	      2.40373460	     -1.09904194	      1.07060945	     -0.61161325	      2.90948126	     -2.99523467	     -1.81731262	    -23.69547232	     16.32591623	     -0.69471892	     -1.96982189	      3.87899440	      0.89940157	    -14.56202879	     16.15209402	     -3.92452247	     -2.02733259	     -3.35288242	     -6.01437045
      1.70000000	      0.84831291	      0.93629239	      2.49812248	     -1.09830885	      1.07030020	     -0.61322014	      3.72636981	     -3.22239019	     -1.50106240	    -25.31194864	     16.21125169	     -0.52072114	     -2.04289093	      4.13723565	      1.02562739	    -14.49117265	     16.12200077	     -3.96325160	     -2.18768230	     -3.47824992	     -6.12819434
      1.71000000	      0.73438996	      1.02479399	      2.60331608	     -1.09763941	      1.06991005	     -0.61480995	      4.73316613	     -3.36165760	     -1.14895293	    -27.06328690	     15.90497384	     -0.17146255	     -1.98720309	      4.31399188	      1.12669957	    -14.45649100	     16.15758105	     -4.04500267	     -2.24726395	     -3.52040128	     -6.26243305
      1.72000000	      0.70055179	      1.14020900	      2.69767719	     -1.09698467	      1.06969100	     -0.61636279	      5.72264680	     -3.51101059	     -0.73875101	    -28.92643676	     15.52772199	      0.12975171	     -2.04033984	      4.51703419	      1.23280316	    -14.37791781	     16.10868579	     -4.08578722	     -2.42400213	     -3.59461403	     -6.38397686
      1.73000000	      0.60321749	      1.20157118	      2.79990914	     -1.09638789	      1.06941644	     -0.61786846	      6.86630199	     -3.58900571	     -0.29988388	    -30.91718394	     14.96661940	      0.56855165	     -2.00212925	      4.66130079	      1.32012370	    -14.33401017	     16.10183053	     -4.15242103	     -2.54331341	     -3.61462164	     -6.52205703
      1.74000000	      0.49739354	      1.22893395	      2.92197392	     -1.09583818	      1.06914637	     -0.61935006	      8.08954749	     -3.61490477	      0.14610393	    -33.00876114	     14.25215107	      1.09685845	     -1.93872859	      4.76655491	      1.40722471	    -14.31319313	     16.14713066	     -4.23200885	     -2.67613872	     -3.59925188	     -6.69433054
      1.75000000	      0.40389385	      1.27969936	      3.02337913	     -1.09530745	      1.06890052	     -0.62073157	      9.37235802	     -3.63879033	      0.64102430	    -35.19874462	     13.40433453	      1.59904312	     -1.89549794	      4.89359287	      1.47948571	    -14.27752528	     16.13918903	     -4.29441293	     -2.84415629	     -3.62067325	     -6.85097354
      1.76000000	      0.29680229	      1.31855147	      3.13179672	     -1.09479227	      1.06861322	     -0.62204369	     10.73045501	     -3.63033351	      1.12734089	    -37.46084291	     12.41008885	      2.13776914	     -1.82565837	      5.00429248	      1.55680643	    -14.26351701	     16.14702512	     -4.35867961	     -3.01616152	     -3.64009572	     -7.00642314
      1.77000000	      0.19545800	      1.36691947	      3.24017443	     -1.09424516	      1.06831472	     -0.62327573	     12.11712704	     -3.60531305	      1.62136215	    -39.74281874	     11.30218802	      2.64378607	     -1.76649767	      5.11874899	      1.62884658	    -14.24515518	     16.14851018	     -4.41354482	     -3.20911545	     -3.67764609	     -7.16961626
      1.78000000	      0.10270325	      1.41586699	      3.35954358	     -1.09364879	      1.06799319	     -0.62443493	     13.51472940	     -3.55890842	      2.09045566	    -42.01357547	     10.10877471	      3.10733614	     -1.71793213	      5.22646591	      1.71126031	    -14.23053473	     16.16175126	     -4.46054254	     -3.42599203	     -3.72631685	     -7.34064011
      1.79000000	      0.02130940	      1.47301435	      3.48484830	     -1.09295718	      1.06765474	     -0.62551154	     14.89840937	     -3.49661093	      2.53696208	    -44.22796784	      8.89594626	      3.48878976	     -1.69380902	      5.33431711	      1.79445962	    -14.20348910	     16.17717731	     -4.49559602	     -3.66299696	     -3.79189106	     -7.52757158
      1.80000000	     -0.04537243	      1.53152999	      3.62134597	     -1.09212860	      1.06731412	     -0.62651760	     16.24220467	     -3.42012058	      2.93229240	    -46.33640400	      7.72244709	      3.77597902	     -1.70046273	      5.43454725	      1.88587318	    -14.16582868	     16.20875173	     -4.52022302	     -3.91424638	     -3.86702736	     -7.72977509
      1.81000000	     -0.08664351	      1.58428034	      3.77212539	     -1.09116243	      1.06700133	     -0.62748025	     17.51653374	     -3.32914281	      3.25950620	    -48.29484984	      6.66550852	      3.94212287	     -1.75138446	      5.52041605	      1.99164317	    -14.11166216	     16.24094820	     -4.53160970	     -4.19315769	     -3.93848888	     -7.93502508
      1.82000000	     -0.11345489	      1.63332470	      3.93004463	     -1.09000861	      1.06671212	     -0.62839433	     18.71976305	     -3.23210007	      3.51374682	    -50.07317126	      5.79943510	      3.98223853	     -1.84494039	      5.59448235	      2.10050816	    -14.02762280	     16.27134314	     -4.53259185	     -4.47390575	     -4.00863763	     -8.15265333
      1.83000000	     -0.12010004	      1.67274298	      4.10130797	     -1.08868498	      1.06647594	     -0.62929147	     19.83411643	     -3.13370739	      3.68003249	    -51.63971577	      5.17174395	      3.90217453	     -1.98435165	      5.65219840	      2.22826343	    -13.91679538	     16.26487249	     -4.52128937	     -4.76642917	     -4.06749391	     -8.36905141
      1.84000000	     -0.12747838	      1.69307162	      4.28689742	     -1.08720425	      1.06625490	     -0.63018908	     20.88101495	     -3.03628499	      3.74643653	    -52.98359443	      4.80830373	      3.72630361	     -2.13533968	      5.68623328	      2.36394407	    -13.80040642	     16.28904586	     -4.51567503	     -5.04290481	     -4.10275751	     -8.58673467
